<svg xmlns="http://www.w3.org/2000/svg" width="235" height="67" viewBox="0 0 235 67">
    <g fill="white" fill-rule="evenodd">
        <path d="M27.55 51.774l.746-.257-.706-.36-.04.617m-15.542 6.793c.14-.557.093-.582-.67-.392.232.136.42.247.67.392m4.34-11.577c-.416.343-.34.561.37.906l-.37-.906M7.026 60.457L6.9 61.56c.148-.02.442.003.49-.074.134-.21.237-.468.201-.693-.018-.12-.344-.211-.565-.335m26.291-31.414l.146.069c.563-.177 1.13-.347 1.335-.886.093-.243-.007-.39-.305-.475-.264-.075-.568-.198-.71.087-.196.39-.314.802-.466 1.205M8.771 30.377c.299-.16.62-.268.818-.46.137-.13.118-.375.13-.57.004-.047-.187-.157-.219-.142-.389.177-1.07.358-1.086.566-.046.618-.593.657-1.067.838-.154.06-.404.2-.386.257.063.188.18.415.37.507.121.06.408-.08.614-.144.118-.037.224-.148.335-.147.708.005.828-.143.491-.705m-5.583 4.186l-.256-.134c-.098.31-.108.653-.309.892-.213.255-.063.405.101.523.058.043.369-.106.536-.2.21-.115.392-.265.586-.4.154-.086.182-.26.26-.417.092-.184.23-.354.348-.529.065-.096.109-.213.204-.285.616-.46 1.54-.69 1.718-1.475a.055.055 0 0 1 .035-.034c.6-.148.478-.661.839-.955-.582-.099-1.606.274-1.69.622-.11.457-.514.658-.962.853-.102.045-.228.122-.252.202-.074.248-.105.505-.157.784-.62-.11-.84.185-1 .553m14.492 3.08c.183-.33.251-.472.602-.236.227.151.688.064 1.027.135.274.058.52.196.784.29.188.066.384.117.687.208 0-.073-.007.033 0 .034.426.033.758.163.895.514.563-.163.644.358 1.03.467.287.082.488.272.876.18.287-.07.966.53.931.812-.028.232.088.307.249.474.346.359.655.795.755 1.233.093.409-.217.817-.472 1.211-.212.328-.19.752-.273 1.134l.192.076c.305-.173.619-.338.912-.522.494-.31.993-.618 1.452-.957.163-.121.217-.334.379-.601l-.06.339c.37-.102.774-.133 1.037-.303.411-.267.929-.483 1.1-.93.062-.165.086-.348.072-.519-.068-.8.822-1.321.928-2.072.042-.295.152-.586.257-.873.152-.414.563-.784.324-1.262.716-.349.39-1.005.678-1.488.265-.447.407-.946.557-1.43.064-.207.01-.438.01-.734 1.162-.218.568-1.073.812-1.723l.593-.388-1.18-.474-.926 1.81-.235-.068.223-1.273.177-.007.249.245c.01-.123.063-.236.014-.284-.458-.458.078-.842.141-1.256.033-.213.15-.424.266-.622.055-.094.198-.155.33-.253-.368-.314-.082-.583.07-.897.155-.323.173-.691.226-1.041.029-.2-.117-.438.276-.525.048-.01.097-.24.043-.28-.287-.216-.613-.397-.912-.603a.887.887 0 0 1-.316-.39c1 .28 1.693-.053 2.259-.587l.248-1.679-.513-.076.303-1.42c.732.055 1.38.062 2.002.163.456.074.927.086 1.316.441.495.45 1.02.867 1.409 1.387.15.2.374.318.784.208.814-.217 1.668-.344 2.515-.472.912-.137 1.83-.278 2.753-.332 1.019-.06 2.046-.039 3.07-.025.444.005.888.08 1.327.122-.065.673.19.942 1.058 1.189.032.404-.012.35-.557.629-.252.13-.478.324-.752.476-.582.324-1.388.243-1.87.785-.2.225-.806.22-1.227.32-.899.209-1.81.39-2.693.639-.478.135-.902.393-1.359.582-.21.086-.439.146-.663.21-.635.178-1.271.352-1.753.485-.077.632-.108 1.163-.217 1.684-.097.464-.25.925-.442 1.37-.1.232-.334.428-.508.64l-.145-.048c.049.109.171.238.135.325-.479 1.121-.98 2.238-1.434 3.377-.115.223-.25.44-.342.67-.13.325-.226.66-.34.99-.029.082-.044.178-.109.24-.711.684-.47 1.558-.905 2.406l1.628-.288c.371-.148.623-.312.901-.349 1.515-.199 3.006-.565 4.568-.463.955.063 1.91.136 2.986.214-.11.188-.16.329-.263.438-.254.27-.182.46.205.534.176.034.339.113.507.171l-.45.33a.12.12 0 0 1-.046.022c-1.181.13-2.152.753-3.322.901-.17.023-.35-.01-.547-.02-.22.521-.74.724-1.36.928-.705.232-1.315.645-1.977.965-.352.17-.736.298-1.09.466-.893.424-1.807.828-2.653 1.306-.498.281-.88.692-1.322 1.04-.293.23-.596.45-.868.686-.159.163-.365.309-.465.491-.129.236-.178.5-.252.752-.058.196-.069.404-.16.589-.168.342-.606.566-.356 1.071.135.272-.24.7-.37 1.061-.187.517-.346 1.04-.546 1.553-.083.217-.294.408-.343.625-.029.13.186.421.22.414.312-.062.61.056.942-.023.704-.167 1.45-.215 2.17-.347.242-.045.438-.242.68-.293.662-.137 1.34-.223 2.006-.348.428-.08.848-.193 1.27-.293.035-.008.074-.043.099-.036.982.28 1.625-.584 2.596-.478.386.041.828-.236 1.307-.388l.254.548c.384-.226 1.051-.178 1.436.143l-.687.155c.226.084.323.116.415.156.108.046.21.099.427.203l-.943.528c-.073.094-.133.256-.268.328-.497.269-1.019.507-1.531.756-.031.015-.06.04-.094.044-.876.086-1.512.621-2.342.791-.133.028-.313.046-.419-.002-.497-.228-.651.045-.817.323-.059.098-.096.252-.192.282-1.082.342-2.198.622-3.254 1.008-.585.213-1.255.263-1.775.625-.223.157-.626.136-.904.26-.667.297-1.38.38-2.124.46-.482.053-.946.285-1.388.48-.392.172-.72.327-1.136.02-.204-.151-.545-.297-.58.165-.784.114-1.275-.343-1.796-.652-.351-.209-.51-.529-1.11-.394-.268.06-.666-.234-1-.375-.14-.06-.303-.12-.385-.218a.387.387 0 0 1-.066-.344.5.5 0 0 1 .275-.257c.476-.177.97-.323 1.451-.495.301-.107.594-.231.883-.36.49-.216.703-.561.722-1 .004-.071.092-.141.19-.28l.204.488c.158-.006.331.013.482-.024.288-.07.443-.257.126-.395-.289-.125-.422-.582-.945-.317l.116-1.749c.738.16.393.825.895 1.156v-.478c.612.066.501-.305.57-.55.054-.193.06-.394.092-.59.015-.088.092-.2.048-.257-.416-.546.299-.753.511-1.108.067-.112.16-.215.241-.322l-.135-.078-.313.138c-.15-.238.35-.743.813-.758-.2-.315-.304-.712-.608-.887-.273-.157-.767-.07-1.191-.094.12-.476-.664-.563-.948-.938-.036-.049-.1-.084-.154-.124-.715-.523-.713-.522-1.272.099-.246.274-.492.55-.762.809-.085.081-.246.113-.404.18.144.566-.374 1.372-.845 1.417-.152.257-.233.468-.386.637-.4.446-.848.866-1.248 1.312-.423.47-.789.976-1.23 1.435-.207.216-.534.357-.88.579.002.267-.046.6-.542.847-.294.147-.557.446-.646.717-.16.487-.713.638-1.072.95-.07.062-.3.009-.52.009.319.448.308.791-.356.942.033.39-.59.435-.646.864-.048.374-.602.607-1.181.562.252.518-.042.865-1.034 1.226l.339.295c-.349.18-.681.328-.982.512-.208.126-.407.28-.546.455-.261.326-.553.53-1.077.362l-.948 1.289-.783.207.198.56-.303-.08-.223.76c-.352.085-.712.268-1.19.31-.524.046-.686-.07-.816-.406-.034-.089-.165-.153-.295-.176-.424-.542-.368-1.196.113-1.58-.597-.52.13-.81.351-1.194.414.213.676.134.84-.255.127-.297.238-.61.706-.632l.24-1.113c.42.253.449.446.391.728-.062.305.006.634.074.944.02.09.233.15.358.225.038-.093.072-.188.113-.28.035-.078.067-.16.12-.23.215-.293.42-.592.67-.866.077-.084.283-.094.468-.15.193-.554.5-1.102 1.097-1.548.196-.147.215-.453.282-.692.012-.043-.122-.146-.21-.167-.177-.043-.85.41-.92.553-.109.22-.26.427-.403.635-.292.422-.762.763-.849 1.28-.017.105-.244.187-.374.28-.071-.1-.153-.198-.214-.303-.08-.14-.146-.285-.213-.43-.04-.086-.129-.206-.089-.253.053-.062.212-.095.323-.091.339.011.508-.045.472-.371-.016-.149.187-.321.314-.469.175-.202.373-.392.593-.62 1.025-1.165 2.22-2.28 2.99-3.8l.269.463.168-.074-.131-.405c.165-.259.326-.509.483-.762.024-.037.012-.102.045-.12.84-.438.96-1.285 1.627-1.822.057-.045.135-.135.114-.17-.289-.469.304-.673.47-1.002.026-.053.133-.09.212-.114.143-.041.295-.067.443-.1-.063-.069-.196-.16-.175-.203.133-.267.302-.524.493-.84-.742-.18-.332-.878-.567-1.358-.136-.278.328-.78.605-1.14.317-.412.776-.756 1.076-1.175.201-.28.231-.639.338-.962l-.235-.1-.573.639-.16-.108c.178-.31.38-.614.53-.932.247-.523.497-1.047.677-1.587.135-.404-.35-.73-.878-.695-.943.066-1.89.084-2.832.148-.627.044-1.246.158-1.872.199-.65.04-1.196.309-1.794.446-.474.109-1.019.014-1.531.032-.432.016-.866.045-1.291.104-.767.108-1.504.281-2.309.07-.689-.183-1.43-.235-2.144-.356-.875-.148-1.614-.475-1.987-1.152-.095-.173.025-.42.039-.632.026-.38-.09-.768.28-1.117.117-.11.2-.447-.248-.507-.058-.008-.107-.07-.153-.112-.456-.42-.488-.423-1.134-.113.077-.193.117-.403.238-.577.346-.497.786-.965.508-1.596.837-.075 1.037-.643 1.42-1.055.326-.35.609-.727.945-1.07.073-.075.293-.058.347-.15l.873-.82.108.054v-.46l.146.071c.155-.102.306-.21.466-.307.112-.068.228-.136.354-.183.267-.1.567-.106.57-.476 0-.192.368-.383.574-.572.45-.412.881-.842 1.367-1.226.226-.178.563-.267.92-.428l.033-.257c.355-.218.818-.206.943-.69.087-.337.542-.623.87-.904.062-.052.306.032.443.05l.845-.988c.154-.108.593-.01.397-.423-.023-.048.119-.156.199-.224.333-.284.67-.566 1.009-.844.071-.058.158-.134.248-.144.702-.083 1.019-.576 1.507-.885.638-.404 1.29-.796 1.898-1.227.323-.229.567-.527.916-.86l-.507-.287c.4-.212.533-.608 1.181-.564.278.02.61-.333.896-.537.251-.18.468-.39.706-.582.493-.399 1.416-.384 1.953.023.318.241.65.374 1.118.21.2-.07.486-.018.721.023 1.043.183 1.827 1.15 1.86 1.993.023.562-.4.88-.652 1.303-.21.353-.308.75-.448 1.13-.172.465-.377.926-.49 1.401-.134.561-.167 1.137-.283 1.702-.029.137-.196.269-.332.377-.137.11-.313.187-.575.337l.742.243c-.107.13-.205.258-.315.38-.33.364-.16.876-.668 1.223-.287.196-.4.609-.472.94-.095.434-.93.989-1.6.959l-.33.544-.223-.453c-.359 0-.722.037-1.068-.008-.619-.081-.868-.331-.944-.842-.004-.028.017-.07 0-.084-.813-.618-.505-1.43-.598-2.173-.002-.023-.047-.042-.174-.149-.652.429-1.333.848-1.972 1.305a46.024 46.024 0 0 0-2.31 1.753c-.742.608-1.429 1.26-2.15 1.885-.45.39-.922.762-1.377 1.147-.086.072-.131.174-.208.253-.137.143-.286.277-.428.416-.096.095-.207.185-.28.29-.147.217-.276.442-.406.664-.064.11-.202.286-.157.326.122.109.322.223.493.225 1.152.012 2.305-.038 3.455-.006 1.486.041 2.981.033 4.425.428.378.104.8.07.954.587M108.18 28.34c-.341-.119-.552.052-.667.311-.383.861-.758 1.723-1.113 2.591-.399.976-1.135 1.854-1.214 2.923-.006.086-.074.17-.12.251-.338.618-.752 1.215-.998 1.858-.32.83-.51 1.696-.752 2.546-.29 1.018-.587 2.033-.859 3.055-.118.445-.176.902-.27 1.352-.133.648-.275 1.294-.413 1.94.057.018.115.035.172.054l.76-.336c-.527-.454-.313-.93-.165-1.401.143-.457.317-.908.437-1.37.1-.387.15-.784.21-1.178.037-.235-.051-.538.094-.695.322-.346.473-.678.579-1.125.136-.577.12-1.204.522-1.756.242-.332.227-.788.41-1.16.178-.368.48-.69.69-1.05.143-.246.214-.522.33-.782.19-.421.388-.84.585-1.26.275-.587.564-1.17.822-1.762.105-.24.282-.557.177-.737-.173-.297-.024-.484.079-.715.144-.324.275-.652.419-.976.084-.188.184-.372.286-.577m7.788 1.632l-.17-.053c-.141.254-.322.499-.415.765-.205.58-.347 1.175-.549 1.755-.325.93-.644 1.863-1.029 2.774-.41.974-.634 1.994-1.193 2.932-.406.683-.633 1.44-.959 2.157-.177.391-.388.77-.593 1.152-.292.545-.617 1.079-.882 1.632-.448.935-.849 1.886-1.294 2.821-.335.703-.72 1.39-1.054 2.093-.048.1.025.286.12.373.074.07.287.094.406.059.38-.113.844-.87.808-1.225-.03-.288-.088-.6.387-.713.067-.016.117-.11.157-.176.44-.73.893-1.456 1.31-2.196.245-.437.423-.9.648-1.345.162-.32.349-.63.53-.941.097-.165.229-.318.304-.489.076-.168.082-.36.153-.531.25-.6.518-1.193.765-1.793.024-.057-.05-.142-.11-.296l-.344.572c.01-.567.012-.562.466-.728.102-.038.238-.119.254-.195.083-.384.13-.773.191-1.16.16-.036.24-.12.247-.208.016-.22-.062-.455.006-.66.235-.706.672-1.393.73-2.106.049-.588.322-1.097.475-1.636.223-.789.51-1.565.634-2.373.013-.086.001-.174.001-.261m-8.014 9.573l-.124.006c.029.13.113.27.077.386-.155.495-.343.98-.525 1.469-.03.084-.113.157-.127.241-.099.583-.157 1.172-.287 1.75-.08.357-.299.692-.39 1.049a43.992 43.992 0 0 0-.506 2.244c-.134.66-.352 1.324.02 2.14.178-.23.316-.362.391-.515.124-.25.184-.523.31-.773.329-.65.685-1.29 1.02-1.937.265-.509.499-1.028.778-1.531.306-.548.653-1.08.969-1.625.053-.091.032-.21.057-.315.048-.206.061-.427.164-.614.357-.651.751-1.288 1.123-1.934a9.69 9.69 0 0 0 .458-.87c.165-.364.282-.744.447-1.11.377-.832.83-1.645 1.145-2.494.592-1.597 1.081-3.22 1.678-4.816.156-.417.174-.66-.498-.79l.67-1.538.506-3.702c-.62.284-.394 1.08-1.124.95-.121.308-.251.566-.322.835-.116.434-.104.908-.646 1.177-.022.01-.025.057-.026.086-.007.585-.271 1.009-.844 1.101-.143.573-.109 1.17-.429 1.566-.567.701-.421 1.641-1.197 2.243-.035.026.01.115-.004.17-.075.284-.044.699-.257.825-.694.412-.775.941-.698 1.564.01.086-.117.213-.22.275-.212.126-.45.22-.586.283.122.31.283.512.254.691-.055.329-.253.64-.336.967-.136.534-.495 1.006-.54 1.57-.027.331-.247.652-.38.976m6.501 7.79l.397.462c-.494-.244-.635-.06-.784.213-.334.618-.71 1.221-1.076 1.826-.28.466-.57.928-.859 1.392-.295.474-.726.783-1.395.818-.115.006-.32.067-.323.11-.028.407-.398.496-.802.623-.193-.521-.777-.463-1.261-.548-.131-.024-.31.052-.437.12-.551.295-.99.764-1.81.528-.317-.091-.753.151-1.117.117-1.203-.116-2.162-.622-2.953-1.387-.327-.316-.817-.527-1.099-.864-.77-.922-.859-2.005-.926-3.092-.085-1.39.293-2.735.516-4.092.138-.845.22-1.78.718-2.48.526-.739.195-1.506.549-2.199.15-.295.307-.587.457-.882.042-.083.117-.179.096-.254-.146-.526.289-.847.57-1.234.125-.171.125-.409.166-.62.018-.097-.051-.229.005-.297.617-.754.84-1.64 1.224-2.472.25-.543.686-1.017.616-1.664-.022-.2.31-.428.487-.64.349-.417.523-.86.542-1.388.01-.292.342-.575.527-.864.159-.25.335-.493.468-.752.413-.811.803-1.631 1.217-2.442.111-.215.295-.404.41-.618.276-.51.532-1.028.795-1.543.02-.041.051-.086.05-.128-.05-1.442.987-2.57 1.596-3.82.045-.09.257-.127.396-.18.735-.277 1.474-.55 2.209-.826.126-.048.258-.094.362-.167.152-.107.281-.238.42-.358a22.479 22.479 0 0 0-.08-.176c.25.049.502.096.805.154.281-.16.525-.514 1.065-.343.115.036.346-.184.538-.294.085.02.303.125.363.081.453-.335.401-.068.591.215.217.32.727.501 1.101.75.767.512 1.58.995 2.096 1.71.18.248.183.586.26.884.016.058-.02.131.007.182.66 1.211.703 2.52.822 3.808.069.75-.027 1.513-.078 2.269-.047.69-.065 1.39-.23 2.062-.083.335-.166.543.181.8.083.061-.067.544-.23.603-.618.223-.627.687-.742 1.103-.247.891-.415 1.798-.691 2.682-.303.969-.58 1.962-1.076 2.864-.407.74-.452 1.544-.85 2.272-.271.493-.458 1.018-.666 1.533-.028.072.013.182.063.254.248.362.149.637-.282.826a.642.642 0 0 0-.3.268c-.219.448-.386.915-.62 1.357-.178.34-.428.652-.668 1.01l.314.116c-.018.022-.034.063-.055.064-.666.07-.58.6-.775.935-.21.359-.28.777-.422 1.201l.363-.163c.067.407-.149.598-.755.576M72.213 46.133a5.578 5.578 0 0 0-.102.006c0-.29-.06-.59.016-.866.088-.319.333-.608.445-.924.202-.575.37-1.159.527-1.744.098-.367.107-.753.234-1.114.33-.937.718-1.86 1.053-2.795.226-.631.326-1.278.687-1.894.33-.561.427-1.21.605-1.825.104-.357.113-.737.262-1.08.287-.657.689-1.282.954-1.943.173-.432.498-.823.471-1.328-.017-.334.286-.674.394-1.02.04-.125-.07-.278-.113-.418-.15.13-.343.243-.442.394-.176.27-.2.704-.46.817-.425.184-.344.431-.41.683-.07.26-.149.52-.24.775-.24.667-.486 1.331-.73 1.996-.02.052-.056.1-.087.15-.199.324-.447.635-.588.974-.214.513-.354 1.045-.527 1.568-.018.053-.078.137-.058.152.416.292.035.433-.17.615-.091.082-.183.182-.216.286-.206.662-.389 1.33-.592 1.992a91.365 91.365 0 0 1-.769 2.418c-.057.17-.28.315-.3.482-.056.465-.027.937-.069 1.404-.02.226-.125.447-.19.666-.057.494 0 1.023-.205 1.477-.158.348.024.465.21.693l.41-.597m4.974-21.596c-.638.238-1.034.226-1.45-.076-.227-.165-.66-.271-.96-.227-.557.083-.855-.145-1.227-.381a6.602 6.602 0 0 0-1.316-.649c-.487-.173-.507-.428-.41-.771.072-.258.099-.523.168-.907l-1.039.282c0-.189.013-.368-.004-.546-.014-.138-.129-.293.198-.286.043 0 .149-.156.123-.186-.142-.172-.313-.328-.478-.486-.135-.128-.275-.252-.413-.378.144-.078.29-.225.43-.222.737.016 1.474.1 2.211.104.776.005 1.553-.052 2.329-.085.38-.017.76-.032 1.14-.063.996-.081 1.99-.168 2.986-.26.138-.012.35-.035.392-.106.272-.45.758-.285 1.195-.304a23.654 23.654 0 0 0 1.711-.131c.818-.094 1.627-.226 2.443-.324 1.377-.165 2.755-.324 4.135-.47 1.516-.162 3.016.006 4.504.212.262.036.512.288.694.484.2.216.374.471.444.73.04.147-.1.369-.246.494a2.072 2.072 0 0 1-.744.422c-.63.18-1.284.306-1.928.453-.086.02-.209.014-.254.058-.593.586-1.496.63-2.303.841-.865.226-1.804.25-2.58.729-.408.25-.988.317-1.46.514-.38.159-.771.319-.714.794.028.238-.233.495-.346.748-.261.583-.543 1.162-.757 1.756-.257.708-.412 1.438-.682 2.142-.57 1.487-1.192 2.961-1.778 4.445-.18.458-.282.936-.471 1.392-.159.384-.428.74-.58 1.125-.18.457-.271.935-.428 1.398-.088.262-.229.513-.352.768-.037.077-.136.148-.136.222 0 .862-.67 1.562-.896 2.371-.156.566-.38 1.12-.574 1.679-.103.297-.185.6-.322.885-.043.09-.234.137-.246.144 0 .266.043.473-.007.665-.2.773-.404 1.547-.658 2.31-.12.36-.37.69-.532 1.041-.088.19-.125.396-.16.598-.123.699-.235 1.4-.352 2.1-.047.278-.1.556-.15.844-.274.08-.594.171-.924.265.101.377.193.724.287 1.07.016.056.081.145.06.159-.469.31-.212.72-.248 1.089-.01.096-.032.206.012.29.404.766.319 1.58.379 2.38.008.104-.04.212-.063.318-.13-.054-.283-.091-.386-.169-.087-.065-.117-.178-.153-.238-.26.194-.44.409-.54.387-.277-.058-.637-.009-.766-.368-.106-.292-.347-.524-.76-.725-.42-.202-.578-.756-.834-1.162-.082-.13-.103-.286-.177-.422-.01-.02-.241.013-.241.019.006.16.03.32.048.478.003.028-.01.057-.03.164-.144-.071-.333-.111-.355-.184-.173-.563-.394-1.128-.447-1.702A50.325 50.325 0 0 1 70 48.197c-.008-.661.123-1.323.203-1.984.06-.497.095-1 .223-1.485.149-.566.386-1.118.584-1.677.084-.236.181-.47.25-.708.13-.458.157-.946.383-1.37.549-1.036.569-2.165.984-3.22.326-.828.652-1.658.977-2.489.048-.122.086-.246.134-.368.277-.703.516-1.415.843-2.102.502-1.052.87-2.133 1.232-3.218a3.07 3.07 0 0 1 .434-.883c.254-.337.211-.62-.016-.944-.079-.112-.044-.295-.005-.437.088-.327.208-.648.32-.97.196-.559.396-1.116.641-1.805M49.849 36.105c0 .185.049.355-.01.497-.154.373-.49.697-.443 1.127.013.113-.102.234-.157.351-.072.154-.167.305-.213.464-.118.412-.195.832-.323 1.242-.136.432-.328.853-.46 1.286-.04.13.034.282.056.423.212-.062.29-.11.314-.172.304-.783.542-1.585.917-2.345.266-.54.001-1.27.668-1.492.18-.484.256-.833.439-1.145.171-.292.493-.528.68-.816.279-.432.464-.902.752-1.33.319-.473.779-.891 1.05-1.379.312-.561.552-1.138 1.143-1.57.092-.068.09-.216.136-.325.043-.106.08-.215.138-.316.241-.412.478-.826.74-1.23.159-.247.3-.534.556-.702.432-.284.63-.634.407-1.213-.292.308-.546.554-.771.817-.442.515-.96 1.007-1.276 1.567-.33.583-1.023.942-1.268 1.589-.221.582-.808 1.07-1.139 1.634-.502.856-.814 1.787-1.739 2.458-.202.146-.24.329.103.425.013.004.006.05.01.094l-.31.061m12.46-16.726c.074-.832 1.263-1.386 2.19-.939.083-.115.163-.23.31-.44.301.16.588.325.89.468.17.079.367.12.55.18.78.256 1.564.508 2.337.777.1.034.196.147.221.236.187.67.453 1.348-.388 1.9-.105.069-.093.298-.058.442.066.28.065.428-.296.663-.446.292-.665.812-.944 1.248-.166.259-.288.54-.377.823-.064.205-.024.43-.065.642-.061.317-.153.63-.311.899-.36.48-.773.94-1.067 1.445-.285.487-.447 1.02-.675 1.559l-.569-.121c.823.47.068.773-.055 1.115-.064.177-.423.28-.62.438-.055.046-.008.171.06.26-.563 1.068-1.589 1.523-3.223 1.166.028-.296.062-.685.105-1.072.015-.125.13-.287.068-.366-.213-.272-.11-.516-.018-.782.034-.098-.036-.217-.059-.326l-.376.115c-.099.031-.197.066-.15.162-.273.396-.543.795-.824 1.19-.071.098-.26.187-.25.27.067.615-.556.854-.991 1.195-.065.05-.203.096-.2.14.03.72-.825.85-1.273 1.253-.175.157-.192.457-.195.692-.002.198.066.35-.18.525-.176.126-.17.404-.276.604-.074.14-.227.252-.301.391-.378.715-1.01 1.345-1.121 2.15-.013.094-.171.172-.223.27-.093.177-.16.364-.23.548-.031.08-.025.168-.062.244-.14.286-.292.569-.47.91-.048.008-.244.04-.44.07l-.001.088.174.043c-.043.275-.07.53-.123.783-.113.537-.126 1.103-.685 1.518-.048.036-.03.13-.037.198l-.175 1.61c-.023.2-.066.4-.068.6-.003.37.009.74.03 1.11.036.676-.2 1.37.194 2.028.035.058.001.143-.007.215-.067.558.308 1.027.52 1.523.067.155.42.255.666.336.691.23 1.39.4 2.173.299.638-.083 1.299-.05 1.941-.116.348-.035.691-.148 1.015-.263.594-.212 1.123.038 1.25.542.059.227.326.419.41.52-.016.323.047.586-.06.793-.12.237-.375.586-.603.601-.451.032-.587.296-.86.458-.265.158-.521.353-.824.44-.54.154-1.106.309-1.672.335-.594.028-1.2-.094-1.873-.157-.2.198-1.089.255-1.561.016-.39-.198-.772-.402-1.158-.603-.03-.015-.077-.04-.099-.031-.686.242-.966-.184-1.334-.49-.078-.065-.273-.035-.402-.074-.19-.057-.47-.099-.537-.213-.222-.374-.718-.64-.851-.977-.177-.447-.559-.71-.85-1.058-.2-.236-.405-.575.07-.835.052-.028.032-.158.023-.239-.113-.966-.213-1.932-.353-2.895-.062-.426-.19-.847-.326-1.264-.032-.095-.218-.16-.332-.239-.062.123-.141.241-.182.368-.037.114-.033.236-.047.355l-.186-.002c0-.387-.033-.775.007-1.16.074-.705.178-1.41.296-2.111.095-.561.082-1.175.38-1.665.598-.983.77-2.058 1.261-3.057.34-.69.636-1.393.97-2.085.322-.667.628-1.34 1.013-1.985.484-.81 1.036-1.594 1.568-2.386.114-.169.27-.32.463-.455.34-.421.712-.829 1.01-1.268.202-.3.274-.653.453-.965.143-.248.333-.488.551-.7 1.152-1.113 2.328-2.212 3.474-3.329.183-.179.258-.427.443-.593.157-.124.446-.246.45-.372.018-.725.637-1.201 1.116-1.712.665-.71 1.437-1.358 2.181-2.02.174-.154.418-.259.66-.404M97.233 26.496c-.065.058-.262.165-.33.308-.218.454-.394.92-.574 1.384-.137.356-.123.816-.416 1.049-.4.317-.376.661-.494 1.014-.072.219-.267.413-.405.618-.05.073-.117.144-.146.222-.332.877-.642 1.76-.994 2.63-.12.301-.34.577-.51.866-.127.215-.254.43-.367.651-.25.485.013 1.107-.674 1.479-.064.036-.09.177-.056.246.16.333-.088.597-.198.89-.213.56-.318 1.151-.592 1.69-.323.634-.493 1.287-.674 1.943a.373.373 0 0 1-.119.192c-.32.25-.326.559-.337.884-.013.37-.07.74-.153 1.105-.117.511-.272 1.017-.416 1.524-.055.196-.133.387-.184.584-.03.113-.061.24-.017.342.02.049.283.1.317.069a.636.636 0 0 0 .174-.322c.036-.138-.004-.291.047-.425.228-.592.554-1.17.686-1.774.07-.316.117-.523.592-.558-.113-.11-.186-.175-.25-.245-.062-.07-.115-.144-.156-.197.114-.1.302-.206.28-.262-.038-.1-.205-.169-.356-.279.676-.206.752-.654.852-1.098.06-.255.123-.513.225-.76.24-.575.527-1.14.752-1.72.159-.405.34-.825.343-1.24.003-.468.251-.82.542-1.189.094-.118.104-.274.16-.412.22-.561.44-1.124.67-1.684.095-.228.215-.45.317-.66.102-.031.332-.045.375-.122.19-.345.327-.708.483-1.065l-.204-.003c-.028-.098-.116-.215-.075-.29.398-.718.89-1.41 1.201-2.147.181-.429.902-.848.275-1.305.319-.368.758-.667.838-1.014.13-.562.031-1.153.449-1.674.209-.26.55-.536.548-.803-.008-.653.75-1.01.838-1.482l-.362-.741c-.851 1.092-1.038 2.327-1.853 3.338-.082.102-.036.266-.052.443m1.56-7.138c.373-.384.092-1.029.873-1.236.317-.084.68-.054 1.02-.096 1.112-.14 1.975.317 2.801.758.633.338.728.941.804 1.503.03.22.044.385.266.596.279.266.308.7.395 1.07.124.526.025.995-.502 1.418-.236.188-.23.552-.356.83-.334.743-.664 1.487-1.025 2.22-.208.423-.494.823-.706 1.244-.24.477-.429.969-.65 1.451-.204.44-.428.875-.63 1.317-.434.944-.848 1.893-1.29 2.835-.325.69-.688 1.369-1.019 2.057-.057.12-.038.262-.057.414-.275.111-.416.225-.44.556-.041.581-.26 1.18-.914 1.596-.085.054-.12.215-.09.308.16.502-.164.913-.379 1.347-.143.29-.214.612-.42.871-.573.72-.582 1.569-.953 2.332a2.794 2.794 0 0 1-.201.336c-.068.101-.234.213-.21.294.176.618-.478.855-.89 1.199-.403.337-.41.346.14.526.023.472-.143.853-.8.99-.016.633.51 1.288-.117 1.87l-.164-.02.148-.473c-1.304.643-.864 1.71-1.05 2.649l-.597-.086c.341.262.474.501.063.77.338.547-.21.936-.41 1.387-.018.04-.053.096-.032.122.27.33-.005.47-.411.588.524.687-.21 1.216-.356 1.853l-.157-.2-.422.446c-1.04.005-1.356-.19-1.542-1.012-.092-.403-.445-.339-.834-.244-.124-.287-.133-.601-.585-.728-.099-.027-.11-.353-.078-.532.254-1.477.501-2.956.808-4.426.18-.865.447-1.72.702-2.573.348-1.165.72-2.326 1.082-3.489.13-.417.22-.844.4-1.248.246-.557.432-1.121.603-1.693.181-.603.267-1.256.641-1.783.323-.454.313-.936.541-1.387.44-.87.792-1.765 1.192-2.647.365-.806.75-1.607 1.116-2.413.46-1.009.887-2.026 1.37-3.028.388-.81.855-1.597 1.253-2.404.493-.997.923-2.012 1.429-3.005.43-.842.93-1.662 1.393-2.494.116-.206.256-.416.288-.634.02-.138-.137-.292-.215-.439-.126.085-.266.159-.374.255-.116.103-.202.227-.301.342l-.152-.06"/>
        <path d="M15.458 47l.542.321c-.258.736-.325 1.63-1.734 1.471.152.425-.387 1.194-.815 1.208-.143.004-.351-.092-.42-.192-.061-.092-.028-.29.058-.376.424-.426.897-.819 1.318-1.246.373-.38.7-.787 1.05-1.186M50 50c-.69-.43-1.195-2.352-.926-3 .54.058.228.583.333.874.13.365.221.75.326 1.13.09.33.178.663.267.996M30 35c.227-.679.422-1.292.645-1.894.03-.082.202-.11.355-.106-.413.622-.051 1.598-1 2"/>
        <path d="M49.378 46c.375.705.753 1.304-.089 2-.129-.71-.628-1.304.09-2M25.746 50c-.964-.188-.969-.269-.16-1l.16 1M4.732 59c-.174.335-.347.67-.52 1-.34-.212-.34-.212.52-1M189.181 11.347l-.297.902c.746-.483.807-.66.297-.902zm-10.166 32.789l-.67.158v.801l.122.04.548-.999zm-1.285 3.033l-.192-.131c-.203.11-.538.2-.572.337-.035.14.223.327.353.494l.176-.038.235-.662zm.407-.47c.111-1.37.111-1.37-.114-1.352-.081.266-.134.509-.231.74-.169.397-.092.572.345.612zm3.914-10.202a5.382 5.382 0 0 1-.102-.057l-.75.212c-.276.32.562.882-.398 1.075.061.285.12.555.199.93.483-.61.637-1.142.597-1.734l.454-.426zm-1.1-6.99c.187.348.439.486.822.376.428-.122.824-.297.857-.708.007-.082-.25-.265-.296-.248-.473.176-.928.383-1.383.58zm.39-.68c.55-.171 1.068-.32 1.568-.499.114-.04.211-.175.245-.28.069-.22.09-.448.16-.828l-2.103.963.13.644zm-5.912 2.632c.316-.106.51-.168.702-.236.265-.094.516-.23.794-.28.611-.112 1.25-.14 1.85-.276.61-.14 1.248-.308 1.55-.91-.196-.02-.363-.081-.466-.04-.553.215-1.087.461-1.634.687a.785.785 0 0 1-.345.053c-.424-.037-.866-.169-1.138.25-.035.054-.198.08-.299.077-.473-.013-.808.126-1.014.675zm1.667-2.08c.192.457.671.576 1.168.52.455-.05.884-.241 1.332-.35 1.138-.273 1.101-.7.952-1.425-.49-.044-.702.152-.67.546-.157 0-.288.031-.37-.005-.368-.165-.578-.173-.647.236-.018.103-.452.278-.586.23-.524-.19-.864-.02-1.179.249zm5.74-4.378l-.474 1.45c.657.295 1.422.011 1.515-.567a.782.782 0 0 1 .058-.202c.27-.576.558-1.148.81-1.729.24-.553.424-1.12.663-1.674.26-.606.576-1.196.827-1.804.397-.958.758-1.926 1.137-2.889.392-1 1.134-1.92.966-3.047-.048-.32.21-.667.3-1.006a.642.642 0 0 0-.046-.394c-.018-.042-.256-.083-.28-.057-.104.107-.225.239-.228.364-.02.688-.46 1.277-.702 1.91-.23.598-.665 1.15-.856 1.753-.154.48-.21.96-.646 1.357-.17.154-.259.371-.347.57-.33.752-.636 1.51-.976 2.258-.067.146-.305.247-.359.392-.193.517-.323 1.047-.511 1.564-.16.442-.362.874-.558 1.307-.061.133-.166.254-.293.444zm-9.982 3.155c-.32.652-1.167.986-1.476 1.74.328-.05.512-.054.675-.103 1.442-.433 2.881-.872 4.32-1.312 1.508-.46 3.021-.908 4.516-1.392.283-.092.598-.289.713-.5.247-.454.44-.94.533-1.428.137-.71.6-1.33.762-2.036.124-.546.447-1.066.71-1.588.086-.172.339-.3.388-.471.16-.56.21-1.119.553-1.664.44-.698.651-1.487.979-2.231.193-.438.448-.858.625-1.3.35-.865.662-1.74.994-2.622-.451.052-3.2 2.96-3.284 3.462l.498-.085c.012-.077-.006-.164.04-.212.122-.127.267-.24.418-.347.014-.01.19.09.184.102-.074.136-.148.277-.26.393-.547.551-1.12 1.086-1.656 1.643-.537.557-1.035 1.136-1.563 1.697-.522.553-1.066 1.093-1.59 1.646-.522.551-1.07 1.09-1.537 1.671-.65.808-1.599 1.41-2.224 2.253-.73.984-1.742 1.835-2.62 2.75-.243.253-.432.229-.698-.066zm-8.122 10.664c.249.537-.54.324-.79.543-.419.368-1.234.448-1.262 1.114-.002.053-.335.168-.454.132-.328-.1-.445-.015-.65.193-.23.236-.592.42-.944.544-.55.193-1.124.297-1.174.916-.02.225-.27.438-.454.714l-.26-.012v.475l-.12-.059c-.334.311-.776.584-.973.942-.23.416-.507.345-.843.206-.428-.176-.805-.28-1.332-.167-.313.067-.737-.195-1.11-.312-.147-.046-.296-.15-.434-.14-.934.074-1.357-.366-1.574-.985-.068-.195-.022-.42.012-.627.047-.284-.016-.44-.444-.438-.379.003-.533-.06-.406-.478.16-.523.48-1.134-.19-1.656-.199-.153-.243-.439-.328-.67-.019-.054.079-.188.138-.195.148-.016.344-.023.45.04.485.29.63.25.979-.2.146-.186.418-.315.642-.46.355-.23.71-.46 1.08-.673.877-.508 1.753-1.016 2.647-1.505.732-.401 1.512-.75 2.217-1.18.187-.113.233-.433.237-.66.006-.313-.147-.63-.125-.94.016-.235.2-.463.365-.815l.324.575c.259-.325.465-.57.652-.823.092-.124.106-.308.233-.389.706-.45.939-1.128 1.379-1.707.3-.396.77-.712 1.155-1.069.097-.09.158-.203.241-.303.506-.6 1.006-1.205 1.524-1.8.701-.803 1.414-1.599 2.13-2.393a4.27 4.27 0 0 1 .535-.498c.442-.347.708-.78 1.032-1.191.376-.478.985-.836 1.435-1.282.238-.238.563-.386.713-.748.199-.48.764-.861 1.16-1.293.212-.23.378-.49.602-.714.48-.48 1.007-.933 1.472-1.422.331-.348.712-.673.843-1.135.048-.171.396-.276.556-.442.656-.68 1.28-1.38 1.94-2.057.659-.677 1.373-1.32 2.014-2.008.516-.553.95-1.154 1.44-1.722.152-.175.392-.3.56-.468.966-.956 1.928-1.912 2.877-2.878.487-.498.943-1.014 1.41-1.524.722-.79 1.427-1.59 2.167-2.37.455-.48.961-.929 1.408-1.496l-.8.107c.5-.935.65-.83 1.626-1.078.861-.22 1.676-.378 2.564-.33.375.02.785-.102 1.015.313.09.162.43.257.68.338.537.174.789.471.924.926.222.75.568 1.476.846 2.217.138.364.246.736.358 1.106.021.069.043.177-.003.212-.595.474-.143 1.058-.268 1.581-.072.304-.097.576-.453.786-.162.095-.198.33-.279.505-.188.41-.354.826-.561 1.23-.21.409-.478.781-.445 1.265.024.347-.194.705-.311 1.081-.548-.21-.514.083-.54.44-.02.312.024.624-.3.944-.344.341-.425.825-.416 1.33.006.41-.44.824-.676 1.24a2.816 2.816 0 0 0-.231.508c-.16.484-.214 1.007-.485 1.447-.217.352-.35.695-.475 1.066-.15.447-.496.85-.719 1.285-.155.304-.246.63-.367.945-.074.193-.15.386-.266.682.17.269.082.487-.403.77-.083.048-.147.178-.133.262.115.73-.196 1.381-.55 2.032-.078.142-.06.318-.086.478.184-.026.372-.037.549-.08.681-.166 1.357-.345 2.037-.514.678-.168 1.356-.34 2.04-.494.538-.121 1.09-.203 1.627-.33.514-.123 1.007-.302 1.523-.42.515-.117 1.052-.174 1.571-.281.61-.126 1.204-.294 1.814-.416 1.112-.22 2.233-.415 3.345-.634.33-.064.647-.174.986-.268-.014.24.028.451-.052.629a.681.681 0 0 1-.421.342c-.418.083-.858.096-1.31.083l.322-.116c-.333-.378-.705-.094-.998-.039-1.046.199-2.073.46-3.113.68-.403.085-.75.175-.929.527-.039.077-.429.127-.583.067-.453-.177-.626-.147-.776.272-.517-.396-.946-.088-1.441.11l.267.23-1.036.2c-.027-.117-.033-.286-.073-.291a1.211 1.211 0 0 0-.457.036c-.522.145-1.03.321-1.556.456-.552.142-1.118.25-1.678.37-.309.067-.618.126-.928.188l.02.115.595.142-.715.205-.24-.292-.66.225.473.19c-.265.072-.51.14-.83.229l.435.373-.555.493.13.038c-.097.197-.187.397-.294.591-.102.183-.224.358-.336.536.33.008.69.086.986.008 1.049-.275 2.074-.604 3.111-.909.078-.023.173-.013.282-.019-.005.328-.191.483-.552.592-.598.18-1.169.417-1.752.63l.096.174c.421-.135.842-.272 1.265-.403.169-.052.342-.1.519-.13.765-.135 1.53-.275 2.302-.381.192-.027.412.063.619.1-.125.134-.215.316-.383.393-.372.174-.716.343-.957.648a1.32 1.32 0 0 1-.62.41c-.602.18-1.24.286-1.845.46-.417.118-.796.319-1.21.447-.925.286-1.866.542-2.794.824-.41.125-.605.629-.462 1.03.047.13.054.303-.015.423-.226.391-.168.898-.723 1.158.265.52-.439.7-.595 1.072-.17.408-.48.795-.09 1.256.08.093-.133.477-.323.554-.603.246-.476.608-.384.991.017.072.035.158.003.222-.234.462-.503.913-.72 1.38-.162.35-.316.713-.378 1.08-.056.325-.1.618-.451.838-.082.051-.157.234-.12.264.463.36.077.638-.108.947-.123.206-.175.44-.278.654-.228.474-.469.945-.703 1.417-.013.026-.027.062-.015.085.178.378-.175.573-.396.841-.195.236-.321.565-.296.843.023.257-.01.41-.225.608-.155.143-.149.4-.205.607-.054.202.094.469-.31.557-.057.012-.096.115-.119.18-.23.662-.44 1.328-.688 1.984-.364.963-.74 1.923-1.139 2.878-.24.577-.56 1.133-.782 1.714-.093.242-.017.525-.027.79-.004.092-.007.251-.06.265-.664.178-.414.59-.41.943.001.17-.013.347-.069.51-.301.88-.563 1.773-.947 2.63a11.99 11.99 0 0 0-.613 1.755 89.697 89.697 0 0 1-.861 2.924c-.144.458-.342.904-.501 1.36-.032.091.024.201 0 .297-.05.194-.065.5-.205.546-.217.07-.526-.04-.945-.09-.175.104-.498.298-.82.493-.422-.393-1.346-.495-2.053-.139-.113-.437-.387-.869-.281-1.23.17-.575-.254-.784-.679-1.038-.183-.11-.412-.17-.734-.3l.138 1.05c.013.1.076.217.031.294-.067.116-.21.203-.32.302-.091-.097-.224-.184-.267-.293-.217-.57-.016-1.122.15-1.675.119-.392.107-.394-.425-.427v-.897l.5.445c.669-1.955.876-3.962 1.82-5.776.05-.257.064-.496.148-.719.255-.675.534-1.346.808-2.016.486-1.187.982-2.372 1.462-3.56.264-.654.487-1.318.763-1.968.12-.283.309-.552.507-.807.045-.058.26-.034.397-.048-.012.076-.02.153-.037.228-.025.112-.058.225-.11.423l-.406.192c-.114.247-.229.442-.288.648-.023.082.116.189.11.281-.014.209-.028.43-.125.618-.1.195-.457.358-.115.455-.245.553-.477 1.055-.69 1.563a49.83 49.83 0 0 0-.781 1.94 84.74 84.74 0 0 0-.886 2.519c-.149.442-.153.94-.42 1.326-.511.735-.486 1.532-.636 2.312-.128.664-.251 1.328-.356 1.994-.023.148.038.305.16.463-.02-.466.485-.76.495-1.251.006-.365.037-.858.513-1.21.275-.204.403-.589.458-.906.034-.203-.199-.43-.286-.652-.024-.061.043-.144.108-.326l.293.685.222.015a198.717 198.717 0 0 1 4.124-10.426c.022-.176.01-.36.07-.527.262-.726.534-1.45.827-2.168.123-.3.326-.578.464-.875.39-.843.84-1.674 1.122-2.54.229-.703.696-1.341.706-2.119.007-.553.413-1.101.633-1.653.327-.829.657-1.656.966-2.49.237-.636.32-1.33.697-1.906.388-.591.268-1.253.629-1.825.03-.048-.013-.184-.035-.185-.113-.01-.252-.018-.34.026-.848.414-1.281 1.065-1.598 1.782-.16.364-.26.763-.523 1.072-.162.19-.076.337-.131.488-.306.829-.663 1.647-1.025 2.463-.045.1-.224.165-.343.247.157 1.138-.507 2.135-1.045 3.218h-.435c.186-.405.365-.762.51-1.125.084-.209.084-.44.181-.644.077-.16.247-.291.41-.476-.408-.227-.051-.506.088-.816.262-.583.46-1.185.705-1.775.092-.223.26-.425.35-.65.098-.24.137-.497.216-.744.137-.432.302-.86.418-1.297.029-.113-.036-.289-.14-.363-.09-.066-.318-.069-.45-.027-1.622.5-3.243 1.004-4.85 1.534-.337.112-.598.364-.927.503a112.66 112.66 0 0 1-3.67 1.49c-.624.236-1.304.38-1.953.58-.535.164-1.062.347-1.627.533z"/>
        <path d="M217.85 21.136A217.295 217.295 0 0 1 201.6 24.91c.145-.413.615-.676.94-.496.427.239.689-.006.845-.194.162-.194.278-.235.522-.168.248.067.49.117.535-.195.005-.035.154-.084.232-.08.762.038 1.37-.36 2.08-.458.368-.05.743-.065 1.113-.111.096-.012.177-.099.275-.118.393-.08.789-.145 1.183-.222.138-.026.272-.068.408-.103.79-.206 1.577-.416 2.37-.615.606-.151 1.232-.257 1.818-.443.246-.079.657-.199.414-.576.276-.048.777.36.765-.232 0-.022.082-.06.13-.066.571-.083 1.142-.216 1.714-.218.315 0 .635.215.944.348.024.01-.026.13-.036.173M231.602 17.518c-.781.09-1.493.427-2.346.275-.042-.007-.123.081-.192.129l-.442-.2c-.99.33-1.976.398-3.01.223.27-.227.546-.342 1.048-.22.221.055.581-.098.862-.18.854-.253 1.699-.525 2.578-.064.248-.176.388-.51.812-.121.119.109.463.115.703.168l-.013-.01zM203.314 23.382c-2.836.51-5.673 1.02-8.51 1.528l-.066-.133c1.165-.087 2.008-.727 3.26-.713.413.004.833-.237 1.246-.369.094-.03.196-.12.262-.108.6.112 1.04-.19 1.569-.253.108-.013.226-.01.335.002.517.06 1.022.104 1.489-.128.075-.038.24.004.362.01l.053.164M204.172 21.139c1.823-.779 3.788-1.016 5.878-1.383l-.423.64c.191.042.368.082.545.123.002.029.002.059.003.088-.414.05-.828.1-1.216.145l.176-.344c-.54-.099-.932-.175-1.271.386-.19.314-.707.44-1.129.68-.274-.671-.68-.6-1.164-.41-.423.165-.88.25-1.32.37l-.08-.295M175.87 42.2c-.259.19-.442.32-.62.453-.092.068-.237.135-.254.212-.082.4-.126.801-.195 1.202-.017.096-.072.19-.122.283-.142.266-.287.53-.434.795-.156.28-.41.453-.947.351l1.797-3.406.776.11M217.895 20.206c.75.204 1.17-.101 1.66-.273.11-.038.226-.084.345-.094.457-.034.917-.054 1.424-.083-.059.074-.085.17-.16.189-.41.107-.829.267-1.249.272-.396.004-.684.098-1.007.195-.266.08-.548.14-.827.2-.052.011-.176-.01-.178-.023-.014-.105-.008-.212-.008-.383M222.182 20.615c.169-.583.791-.537 1.262-.634.616-.126 1.259-.157 1.892-.223.083-.009.172.02.276.114a17.358 17.358 0 0 1-3.43.743M212.748 19.922c-.203.02-.439.004-.6.07-.139.058-.294.224-.265.318.104.335-.245.34-.484.27-.394-.116-.737-.31-1.224-.524.935-.146 1.71-.382 2.558-.27l.015.136M213.606 19.649c.47-.512 2.834-1.018 3.43-.592l-3.43.592"/>
        <path d="M174.155 46.46c-.74-.03-.273.454-.423.784-.14-.061-.329-.09-.424-.204-.047-.056.085-.268.124-.411.075-.28.145-.563.214-.845.02-.084.024-.172.037-.258l.129.012c-.012.162-.068.339-.022.48.045.14.193.243.365.442M231.631 18.038c.073-.242.312-.339.725-.408.618-.103 1.194-.294 1.801-.45.164.32-.356.399-.7.487-.59.151-1.226.243-1.842.36l.016.011M186.149 33.5c.106.37-.451.535-.807.859-.233-.494.684-.56.807-.859M227.327 18.897c-.435.84-1.036.857-1.715.682l1.715-.682M229.043 19.16l-1.683.18-.033-.193 1.656-.25.06.262M217.894 19.049l1.7-.152c.004.043.01.085.015.128l-1.7.172-.015-.148M207.602 22.705c.282-.054.492-.572.826-.286l.032.203-.834.25c-.007-.056-.015-.111-.024-.167M203.314 25.21l.772-.3.086.217-.738.36-.12-.278M148.749 23.153c-.02.144-.013.305-.092.428-.445.697-.644 1.437-.752 2.212-.039.28-.337.53-.478.808-.405.794-.818 1.587-1.172 2.396-.192.436-.23.915-.412 1.354-.141.34-.439.638-.595.976-.374.809-.703 1.633-1.057 2.448-.465 1.07-.93 2.142-1.41 3.208-.18.4-.604.802-.56 1.176.077.646-.444 1.06-.642 1.589-.208.554-.556 1.088-.662 1.652-.138.738-.656 1.353-.865 2.063-.214.73-.461 1.461-.796 2.16-.508 1.063-.774 2.177-1.184 3.26-.187.49-.235 1.014-.395 1.512-.119.372-.356.72-.466 1.092-.098.336-.088.693-.139 1.04-.012.077-.077.148-.117.222a9.861 9.861 0 0 1-.192-.008c0-.301-.024-.604.006-.903.043-.43.109-.858.193-1.283.156-.783.311-1.565.505-2.342.213-.854.444-1.706.713-2.55.16-.501.418-.982.612-1.477.517-1.312 1.003-2.63 1.537-3.938.328-.804.73-1.588 1.083-2.385.274-.62.517-1.25.784-1.872.214-.496.447-.986.667-1.48.294-.66.595-1.32.873-1.984.226-.543.317-1.143.668-1.624.271-.373.467-.67.396-1.114-.028-.179.346-.379.457-.596.365-.713.7-1.437 1.033-2.16.354-.769.676-1.547 1.046-2.31.2-.411.493-.793.7-1.202.066-.132-.013-.309-.015-.465-.005-.448.369-.628.779-.472-.019.216-.028.394-.051.57m-19.553 5.807c-.109.526-.177 1.06-.332 1.577-.197.654-.467 1.295-.697 1.944-.103.292-.19.587-.277.881-.227.77-.417 1.548-.686 2.307-.324.923-.755 1.814-.906 2.784-.1.652-.511 1.269-.698 1.918-.265.924-.46 1.863-.67 2.797a18.43 18.43 0 0 0-.222 1.263c-.023.147-.004.298-.112.415-.139.418-.321.83-.407 1.254-.108.539-.203.595-.992.319l.546-.103.934-4.547-.014-.005c.035-.226.064-.453.107-.678.046-.244.085-.489.16-.726.248-.787.51-1.571.767-2.357.023-.07.073-.144.06-.211-.097-.524.131-.984.386-1.449.127-.231.15-.499.227-.749.266-.867.515-1.739.809-2.6.28-.819.619-1.624.913-2.44.349-.971.677-1.949 1.015-2.923l.128-.051c.06.112.18.23.168.337-.043.35-.135.696-.207 1.043m25.792-9.953c-.016-.308-.223-.608-.254-.917-.026-.26.145-.5-.116-.777-.221-.236-.29-.577-.375-.88-.143-.522-.211-.558-.854-.481-.256.031-.53-.031-.796-.05l.004-.154 1.108-.185-.556-.499h-1.842l-.394.613-.131-.162c-.266.023-.571-.014-.79.08-.481.207-.935.464-1.366.735-.168.105-.316.295-.346.461-.051.286.052.592-.01.875-.084.384-.28.75-.395 1.129-.085.282-.227.536-.058.88.09.183-.328.529-.55.849l.16.223-.641 1.087c.231.288.44.587.222.97-.154.27-.275.554-.4.835-.305.677-.6 1.358-.905 2.036-.286.636-.575 1.271-.87 1.904-.106.227-.235.447-.326.619l.507.348c-.403.109-.47.15-.795.686a28 28 0 0 0-.934 1.658c-.143.273-.205.573-.329.854-.301.68-.644 1.348-.918 2.034-.189.473-.152 1.017-.744 1.345-.044.024-.037.106-.052.163-.132.514-.251 1.03-.404 1.54-.044.149-.09.33-.174.463-.01-.39-.048-.783.159-1.172.232-.435.18-.972.232-1.465.041-.387.021-.78.078-1.164.062-.413.176-.82.278-1.228.067-.265.165-.525.226-.79.131-.574.248-1.15.368-1.727.048-.236.108-.472.125-.709.033-.461.033-.924.057-1.386.014-.267.041-.534.076-.8.04-.317.256-.7.107-.936-.271-.435-.193-.856-.159-1.271a19.466 19.466 0 0 0-.028-3.543c-.04-.383.162-.792.067-1.158-.137-.529-.444-1.03-.689-1.566.063-.083.272-.232.263-.371-.019-.269-.149-.535-.257-.796a1.222 1.222 0 0 0-.25-.364c-.388-.4-.832-.769-1.164-1.195-.165-.213-.19-.43-.606-.437-.294-.004-.585-.216-.875-.212-.44.005-.878.117-1.38.194-.053.102-.09.39-.253.449-.395.14-.848.173-1.268.248-.23-.486-.756-.776-1.362-.744-.515.028-.952.456-1.532.203-.022-.009-.103.037-.124.07-.327.547-.952.557-1.54.602-.157.189-.385.307-.555.465a.881.881 0 0 0-.258.439c-.029.134.05.285.081.428h-.445l-.2 2.039c.146.13.36.32.513.458-.321.256-.66.407-.757.628-.192.44-.251.918-.37 1.397l.521-.019c-.159.475-.317.903-.443 1.337-.205.708-.367 1.425-.587 2.13-.152.491-.394.962-.552 1.451-.211.657-.35 1.335-.583 1.98-.173.478-.717.853-.662 1.44.043.451-.45.804-.42 1.306.028.455-.206.922-.336 1.383-.08.285-.176.567-.277.848-.017.048-.11.078-.134.127a3.333 3.333 0 0 0-.199.465c-.027.083.014.18-.013.263-.127.384-.28.764-.398 1.15-.139.458-.22.928-.381 1.38-.213.598-.48 1.184-.714 1.778-.032.08.026.181-.007.259-.093.216-.14.498-.334.625-.524.338-.573.561-.021.879-.132.035-.237.064-.388.106l.46.107c-.567.226-.658.546-.502.953.038.098.028.3-.013.31-.653.153-.262.467-.217.6-.176.251-.345.399-.385.567-.217.916-.435 1.834-.584 2.758-.078.478-.062.975-.004 1.457.066.538.226 1.068.36 1.664.914-.2 1.488.116 1.598.888.564.078 1.075.131 1.573.23.122.023.183.21.305.288.123.078.332.188.425.152.278-.107.482-.25.564-.558.106-.392.028-.88.639-1.13.294-.12.573-.342.734-.575.173-.25.317-.582.26-.848-.073-.332.273-.457.327-.7.115-.526.186-1.06.335-1.58.216-.76.485-1.511.729-2.267.068-.21.04-.502.204-.617.584-.41.544-.984.723-1.5.217-.623.386-1.257.615-1.878.299-.814 1.182-1.431 1.236-2.335.002-.047.1-.085.125-.136.2-.4.406-.8.586-1.207.09-.206.13-.426.192-.64.065.007.65-2.264.715-2.257.06.25-.202 1.507-.154 1.707.172.065.11 1.368.208 1.436.03.02-.027.194-.085.212-.463.143-.467.441-.473.77-.008.442-.071.883-.097 1.325-.01.168-.003.341.038.505.062.249.226.49.23.736.004.41-.12.822-.126 1.233-.01.66-.376 1.299-.169 1.97.012.039 0 .09-.022.128-.327.534-.373 1.109-.411 1.688-.018.257-.06.512-.099.767-.026.173-.068.345-.083.42.183.316.545.64.468.867-.27.796.003 1.572-.039 2.354-.018.344.186.726-.31.978-.06.03-.061.157-.063.24-.01.436-.019.872-.01 1.309.003.215-.022.451.076.64.255.496.07 1.092.56 1.53.034.03-.017.115-.004.171.152.647.517.916 1.307 1.084.175.037.299.26.424.408.112.133.155.355.3.408.44.157.916.25 1.426.381l.16-.322c.268.398.536.72 1.079.439l.806-.21 1.15-1.52a8.17 8.17 0 0 0-.135-.121h.798c-.44-.364-.254-.603.223-.777.026-.009.041-.047.052-.074.267-.669.543-1.334.797-2.006.186-.49.347-.986.513-1.481.096-.285.185-.571.266-.86.047-.168.048-.346.11-.51.272-.718.562-1.432.839-2.149.092-.239.105-.513.263-.717.28-.359.439-.715.355-.99.144-.186.265-.296.322-.424.323-.717.628-1.44.941-2.16.537-1.233 1.079-2.465 1.61-3.7.293-.679.557-1.366.856-2.043.328-.744.682-1.482 1.023-2.222.201-.434.4-.87.603-1.303.19-.402.361-.812.586-1.201.238-.413.518-.81.806-1.203.104-.141.349-.228.414-.374.216-.48.55-.886.995-1.248.097-.078.084-.273.059-.406-.012-.062-.177-.105-.272-.156-.05.115-.082.238-.154.343-.08.115-.197.213-.297.318l-.15-.062c.008-.11-.013-.227.029-.326.286-.675.585-1.347.883-2.019.252-.567.59-1.118.746-1.702.205-.773.91-1.428.797-2.27-.006-.052.134-.107.15-.17.087-.325.157-.653.232-.98.034-.166.261-.325.283-.5a9.53 9.53 0 0 0 .064-1.663"/>
    </g>
</svg>
